<?xml version="1.0" encoding="UTF-8"?>
<svg version="1.1" xmlns="http://www.w3.org/2000/svg" width="256" height="256">
<path d="M0 0 C1.47760861 -0.00599252 2.95521411 -0.01279973 4.43281555 -0.02035522 C8.42897192 -0.03795151 12.42504252 -0.04270798 16.42123389 -0.0439868 C18.92398251 -0.04541289 21.42670964 -0.04969119 23.9294529 -0.05498123 C32.67824298 -0.07346238 41.4269723 -0.08165449 50.17578125 -0.08007812 C58.30214131 -0.07887814 66.42823518 -0.09995733 74.55452794 -0.13156545 C81.55442245 -0.15781189 88.55423049 -0.16844189 95.55417377 -0.16716731 C99.72461848 -0.16666001 103.89482655 -0.17221326 108.06522179 -0.19352341 C111.9929279 -0.21304688 115.92017512 -0.21293528 119.84789848 -0.19849014 C121.27924021 -0.19641809 122.71061174 -0.20100579 124.14190292 -0.21321106 C142.45937735 -0.35913876 157.91378922 5.79539254 171.3449707 18.29052734 C184.90232756 32.13728591 189.65090632 47.9588665 189.63549805 66.94555664 C189.64149057 68.42316525 189.64829777 69.90077075 189.65585327 71.37837219 C189.67344956 75.37452856 189.67820603 79.37059916 189.67948484 83.36679053 C189.68091093 85.86953915 189.68518924 88.37226628 189.69047928 90.87500954 C189.70896043 99.62379962 189.71715254 108.37252894 189.71557617 117.12133789 C189.71437618 125.24769795 189.73545538 133.37379182 189.7670635 141.50008458 C189.79330993 148.49997909 189.80393993 155.49978713 189.80266535 162.49973041 C189.80215805 166.67017512 189.80771131 170.84038319 189.82902145 175.01077843 C189.84854493 178.93848454 189.84843332 182.86573176 189.83398819 186.79345512 C189.83191614 188.22479685 189.83650384 189.65616838 189.84870911 191.08745956 C189.9946368 209.40493399 183.8401055 224.85934586 171.3449707 238.29052734 C157.49821214 251.8478842 141.67663154 256.59646296 122.68994141 256.58105469 C121.2123328 256.58704721 119.7347273 256.59385441 118.25712585 256.60140991 C114.26096948 256.6190062 110.26489889 256.62376267 106.26870751 256.62504148 C103.7659589 256.62646757 101.26323177 256.63074588 98.76048851 256.63603592 C90.01169843 256.65451707 81.26296911 256.66270918 72.51416016 256.66113281 C64.3878001 256.65993282 56.26170623 256.68101202 48.13541347 256.71262014 C41.13551895 256.73886657 34.13571092 256.74949657 27.13576764 256.74822199 C22.96532293 256.74771469 18.79511486 256.75326795 14.62471962 256.77457809 C10.6970135 256.79410157 6.76976629 256.79398996 2.84204292 256.77954483 C1.4107012 256.77747278 -0.02067033 256.78206048 -1.45196152 256.79426575 C-19.76943594 256.94019345 -35.22384781 250.78566214 -48.6550293 238.29052734 C-62.21238616 224.44376878 -66.96096491 208.62218818 -66.94555664 189.63549805 C-66.95154916 188.15788944 -66.95835637 186.68028394 -66.96591187 185.2026825 C-66.98350815 181.20652612 -66.98826462 177.21045553 -66.98954344 173.21426415 C-66.99096953 170.71151554 -66.99524783 168.20878841 -67.00053787 165.70604515 C-67.01901902 156.95725507 -67.02721113 148.20852575 -67.02563477 139.4597168 C-67.02443478 131.33335674 -67.04551397 123.20726287 -67.07712209 115.08097011 C-67.10336853 108.08107559 -67.11399853 101.08126756 -67.11272395 94.08132428 C-67.11221665 89.91087957 -67.1177699 85.7406715 -67.13908005 81.57027626 C-67.15860352 77.64257014 -67.15849192 73.71532293 -67.14404678 69.78759956 C-67.14197473 68.35625784 -67.14656243 66.92488631 -67.1587677 65.49359512 C-67.3046954 47.1761207 -61.1501641 31.72170883 -48.6550293 18.29052734 C-34.80827073 4.73317048 -18.98669014 -0.01540827 0 0 Z " fill="#000000" transform="translate(66.655029296875,-0.29052734375)"/>
<path d="M0 0 C0.886875 0.680625 1.77375 1.36125 2.6875 2.0625 C3.6775 2.76375 4.6675 3.465 5.6875 4.1875 C11.46271437 9.11163015 15.29758645 16.69595819 16.6875 24.0625 C16.71208592 26.3957038 16.71517698 28.72933082 16.6875 31.0625 C18.50121094 30.95808594 18.50121094 30.95808594 20.3515625 30.8515625 C33.84406964 30.30931698 43.98462084 31.99286641 54.75 40.9375 C61.79741584 47.86702227 64.74910782 54.2217294 65.6875 64.0625 C65.80609375 65.24457031 65.9246875 66.42664063 66.046875 67.64453125 C66.62804954 78.49684812 63.56072769 85.65403112 57.05078125 94.21484375 C51.86232455 99.95606582 44.27696295 104.47330048 36.6875 106.0625 C33.77161773 106.17254341 30.87895711 106.23003825 27.96264648 106.23950195 C27.08240311 106.24607315 26.20215973 106.25264435 25.29524231 106.25941467 C22.38302519 106.27911771 19.47085967 106.29080593 16.55859375 106.30078125 C15.06219707 106.30689454 15.06219707 106.30689454 13.53557014 106.31313133 C8.25149875 106.33398303 2.96745323 106.34828656 -2.31665039 106.35766602 C-7.7547433 106.36870608 -13.19242429 106.40308096 -18.63037205 106.44283772 C-22.82820862 106.46908194 -27.0259484 106.47736496 -31.22385979 106.48094749 C-33.22716988 106.48579619 -35.23047614 106.49736076 -37.23370552 106.51598549 C-51.25464894 106.63820179 -63.56746988 106.26317838 -74.3125 96.0625 C-76.63417817 93.5592688 -78.51323046 90.96160473 -80.3125 88.0625 C-81.04533203 86.89460938 -81.04533203 86.89460938 -81.79296875 85.703125 C-86.61726938 76.78424988 -86.68122686 66.88812471 -84.71875 57.1015625 C-81.29987052 47.0665181 -72.5817816 38.86551207 -63.3125 34.0625 C-61.05078125 33.41015625 -61.05078125 33.41015625 -59.3125 33.0625 C-59.415625 31.825 -59.51875 30.5875 -59.625 29.3125 C-59.56155816 19.20938688 -54.41137295 11.23937474 -47.57421875 4.1875 C-33.83991266 -8.71658033 -16.04438427 -9.38445118 0 0 Z " fill="#9BFCF6" transform="translate(138.3125,77.9375)"/>
<path d="M0 0 C14.78710423 -0.85128319 26.14632653 -0.02579438 38.0625 9.875 C45.10991584 16.80452227 48.06160782 23.1592294 49 33 C49.17789063 34.77310547 49.17789063 34.77310547 49.359375 36.58203125 C49.94054954 47.43434812 46.87322769 54.59153112 40.36328125 63.15234375 C34.28326457 69.88011039 25.55389255 74.56219315 16.53125 75.2734375 C4.65392399 75.70047746 -4.14414816 73.59848286 -13.4375 65.6875 C-21.70553941 57.64471167 -25.87702965 48.70160089 -26.4375 37.0625 C-25.96400248 25.57107953 -21.18208306 17.76725717 -13 10 C-12.44828125 9.47535156 -11.8965625 8.95070313 -11.328125 8.41015625 C-7.86782436 5.3498366 -4.04152004 3.18242082 0 1 C0 0.67 0 0.34 0 0 Z " fill="#7EBAFC" transform="translate(155,109)"/>
<path d="M0 0 C0.33 0 0.66 0 1 0 C1.02578125 1.12277344 1.0515625 2.24554688 1.078125 3.40234375 C1.39449568 15.25588753 1.39449568 15.25588753 6 26 C6.47308594 26.75539062 6.94617188 27.51078125 7.43359375 28.2890625 C12.84093149 36.0434701 20.78069204 41.70341435 30 44 C33.29748006 44.22383025 36.57200392 44.18966709 39.875 44.125 C40.75414063 44.11597656 41.63328125 44.10695312 42.5390625 44.09765625 C44.6928271 44.07424577 46.84645014 44.0383801 49 44 C49.99 49.28 50.98 54.56 52 60 C52.66 60 53.32 60 54 60 C55.2265625 61.72265625 55.2265625 61.72265625 56.625 64.0625 C62.65198338 73.29131831 69.73892205 77.28891014 80 81 C80 81.33 80 81.66 80 82 C70.2808732 82.09305698 60.56190195 82.16394486 50.84242535 82.20724869 C46.32830146 82.22804203 41.81448444 82.25620695 37.30053711 82.30175781 C32.93682185 82.34551249 28.57340005 82.36919903 24.20948219 82.37950897 C22.55224812 82.38684759 20.89502844 82.40117696 19.23792076 82.42292023 C6.23946179 82.58655036 -5.15418819 81.34701518 -15 72 C-17.32167817 69.4967688 -19.20073046 66.89910473 -21 64 C-21.73283203 62.83210938 -21.73283203 62.83210938 -22.48046875 61.640625 C-27.30476938 52.72174988 -27.36872686 42.82562471 -25.40625 33.0390625 C-21.98737052 23.0040181 -13.2692816 14.80301207 -4 10 C-2.68 9.67 -1.36 9.34 0 9 C0 6.03 0 3.06 0 0 Z " fill="#90FBBF" transform="translate(79,102)"/>
</svg>
